# xmcd
#
# Track frame offsets:
#	150
#	10701
#	18237
#	31157
#	40338
#	56634
#	67528
#	80198
#	82584
#	92575
#	106749
#	120308
#	142919
#	153670
#	158424
#	175277
#	178139
#	195501
#	207442
#	221675
#	230061
#	248217
#	249637
#	265616
#	281356
#	288841
#	304678
#
# Disc length: 4289 seconds
#
# Revision: 1
# Processed by: cddbd v1.5.2PL0 Copyright (c) Steve Scherf et al.
# Submitted via: audiograbber 1.83.01
#
DISCID=5b10bf1b
DTITLE=Tom Waits - On The Scene '73 (KPFK folk scene broadcast)
DYEAR=1973
DGENRE=Blues
TTITLE0=Virginia Avenue
TTITLE1=Interview
TTITLE2=San Diego Senerade
TTITLE3=Interview
TTITLE4=Ol' 55
TTITLE5=Interview
TTITLE6=Semi Suite
TTITLE7=Interview
TTITLE8=Fumblin' With The Blues
TTITLE9=Interview
TTITLE10=Rosie
TTITLE11=Interview
TTITLE12=Depot, Depot
TTITLE13=Interview
TTITLE14=I Hope That I Don't Fall In Love With You
TTITLE15=Interview
TTITLE16=(Looking For) The Heart Of Saturday Night
TTITLE17=Interview
TTITLE18=Ice Cream Man
TTITLE19=Interview
TTITLE20=Big Joe And Phantom 309
TTITLE21=Interview
TTITLE22=Friday's Blues
TTITLE23=Shiver Me Timbers
TTITLE24=Diamonds On My Windshield
TTITLE25=Getting' Drunk On The Bottle
TTITLE26=Tijuana (with Jack Tempchin)
EXTD=
EXTT0=
EXTT1=
EXTT2=
EXTT3=
EXTT4=
EXTT5=
EXTT6=
EXTT7=
EXTT8=
EXTT9=
EXTT10=
EXTT11=
EXTT12=
EXTT13=
EXTT14=
EXTT15=
EXTT16=
EXTT17=
EXTT18=
EXTT19=
EXTT20=
EXTT21=
EXTT22=Bonus Track
EXTT23=Bonus Track
EXTT24=Bonus Track
EXTT25=Bonus Track
EXTT26=Bonus Track
PLAYORDER=
